<?xml version="1.0" standalone="no"?>
<!DOCTYPE svg PUBLIC "-//W3C//DTD SVG 1.1//EN" "http://www.w3.org/Graphics/SVG/1.1/DTD/svg11.dtd" >
<svg xmlns="http://www.w3.org/2000/svg">
<metadata></metadata>
<defs>
<font id="cyntho_slab_proitalic" horiz-adv-x="238" >
<font-face units-per-em="1000" ascent="750" descent="-250" />
<missing-glyph horiz-adv-x="255" />
<glyph horiz-adv-x="1000" />
<glyph horiz-adv-x="1000" />
<glyph unicode="&#xd;" horiz-adv-x="1000" />
<glyph unicode=" "  horiz-adv-x="255" />
<glyph unicode="&#x09;" horiz-adv-x="255" />
<glyph unicode="&#xa0;" horiz-adv-x="255" />
<glyph unicode="!" d="M186 212h-76q12 81 34.5 244t33.5 244h76q-11 -82 -34 -244.5t-34 -243.5zM80 0q2 19 7 55t8 55h76q-2 -19 -7 -55t-8 -55h-76z" />
<glyph unicode="&#x22;" horiz-adv-x="426" d="M208 437h-56l27 263h76zM396 437h-55l26 263h77z" />
<glyph unicode="#" horiz-adv-x="804" d="M181 477l9 61h122l52 162h81l-52 -162h234l52 162h81l-52 -162h113l-8 -61h-124l-80 -254h112l-9 -61h-122l-51 -162h-81l50 162h-233l-51 -162h-81l50 162h-112l9 61h123l80 254h-112zM374 477l-80 -254h234l80 254h-234z" />
<glyph unicode="$" horiz-adv-x="558" d="M534 203q-12 -87 -79 -143.5t-160 -63.5l-14 -96h-35l13 95q-123 3 -201 64l18 133h69l-13 -93q55 -37 137 -38l37 264q-36 13 -56.5 22t-49.5 26t-43.5 35t-23.5 46.5t-4 62.5q12 83 76.5 134.5t153.5 53.5l14 95h35l-13 -96q108 -7 182 -65l-19 -133h-69l13 93 q-48 35 -117 39l-35 -253q99 -37 132 -61q63 -46 52 -121zM452 199q6 41 -23 65t-90 48l-34 -248q58 6 98.5 43t48.5 92zM211 519q-6 -43 22 -70t84 -49l33 238q-57 -3 -94.5 -35.5t-44.5 -83.5z" />
<glyph unicode="%" horiz-adv-x="927" d="M297 0h-83l519 725h83zM131 562q10 74 63 120t127 46t112.5 -46t28.5 -120q-10 -73 -62 -119t-126 -46q-73 0 -113 45.5t-30 119.5zM196 562q-6 -47 18 -77.5t68 -30.5t77 30.5t39 77.5q7 48 -17 78.5t-68 30.5t-76.5 -30.5t-40.5 -78.5zM565 162q10 74 62.5 120 t126.5 46t113 -46t29 -120q-11 -74 -63 -119.5t-125 -45.5t-113 45.5t-30 119.5zM630 162q-7 -47 17.5 -77.5t68.5 -30.5t76.5 30.5t39.5 77.5q7 48 -17 78.5t-68 30.5t-77 -30.5t-40 -78.5z" />
<glyph unicode="&#x26;" horiz-adv-x="714" d="M501 307l8 56h226l-8 -56h-83q-26 -117 -97 -194q23 -20 45 -38.5t33 -26.5l11 -9l-55 -48q-37 28 -87 73q-96 -69 -224 -69q-97 0 -150.5 55.5t-40.5 142.5q9 66 52 110t113 80q-37 85 -27 159q10 72 64 117.5t129 45.5q72 0 112 -41.5t30 -108.5q-5 -36 -23.5 -66 t-53.5 -55t-60.5 -39t-74.5 -38q52 -94 161 -201q54 63 76 151h-76zM447 108q-115 113 -174 216q-52 -29 -82 -59.5t-36 -71.5q-8 -61 26.5 -99t96.5 -38q97 0 169 52zM294 542q-8 -57 18 -126q52 24 79.5 39t54 42t30.5 58q6 40 -15 64.5t-59 24.5q-42 0 -72 -28.5 t-36 -73.5z" />
<glyph unicode="'" d="M208 437h-56l27 263h76z" />
<glyph unicode="(" horiz-adv-x="294" d="M116 312q19 133 66 254.5t111 198.5l36 -42q-46 -65 -82.5 -175.5t-54.5 -235.5q-17 -121 -11 -233t33 -177l-48 -42q-42 77 -55 199.5t5 252.5z" />
<glyph unicode=")" horiz-adv-x="294" d="M264 313q-19 -134 -66 -255t-111 -198l-35 42q46 65 82 176t54 235q17 121 12 233t-33 177l48 42q42 -78 55 -199.5t-6 -252.5z" />
<glyph unicode="*" horiz-adv-x="510" d="M176 642l131 -84l24 167h50l-23 -167l156 84l19 -44l-156 -84l132 -82l-30 -44l-133 83l-24 -166h-50l23 166l-154 -83l-20 44l155 82l-132 84z" />
<glyph unicode="+" horiz-adv-x="582" d="M404 581l-26 -191h188l-9 -60h-188l-27 -190h-66l27 190h-186l8 60h187l26 191h66z" />
<glyph unicode="," d="M27 -163l-28 34q35 31 60.5 97t36.5 143h76q-11 -82 -52 -155.5t-93 -118.5z" />
<glyph unicode="-" horiz-adv-x="397" d="M352 260h-235l8 60h236z" />
<glyph unicode="." d="M81 0l15 111h76l-15 -111h-76z" />
<glyph unicode="/" horiz-adv-x="358" d="M52 -100h-75l415 825h77z" />
<glyph unicode="0" horiz-adv-x="638" d="M99 350q22 158 109 256.5t209 98.5t182 -98t38 -257q-23 -159 -110.5 -257t-209.5 -98t-181.5 98.5t-36.5 256.5zM177 349q-18 -129 23 -210t126 -81q86 0 150 81t83 210q17 130 -24 211.5t-127 81.5q-85 0 -149 -81.5t-82 -211.5z" />
<glyph unicode="1" horiz-adv-x="544" d="M74 0l8 63h196l79 553l-207 -107l-26 59l244 132h79l-90 -637h165l-8 -63h-440z" />
<glyph unicode="2" horiz-adv-x="556" d="M195 501h-68l18 133q100 71 227 71q95 0 148.5 -56t40.5 -146q-8 -59 -52.5 -126.5t-102 -121t-114 -98t-94.5 -69.5l-39 -25h353l-9 -63h-451l8 63q8 5 22.5 14.5t56 39t80 59t86 72t83 82t62.5 84t32 81.5q9 65 -25 106t-101 41q-79 0 -147 -41z" />
<glyph unicode="3" horiz-adv-x="575" d="M206 506h-68l19 133q96 66 231 66q95 0 146.5 -48.5t40.5 -126.5q-7 -56 -47.5 -98.5t-103.5 -61.5q67 -20 101 -68t24 -113q-12 -86 -85 -140t-177 -54q-145 0 -222 98l50 45q55 -80 176 -80q71 0 122 39.5t59 101.5t-33 101t-115 39h-40l9 61h41q64 0 108.5 33.5 t52.5 86.5q8 54 -25.5 88t-94.5 34q-88 0 -155 -39z" />
<glyph unicode="4" horiz-adv-x="645" d="M454 0l17 123h-390l6 42l454 535h90l-73 -517h87l-8 -60h-87l-17 -123h-79zM188 183h291l58 408z" />
<glyph unicode="5" horiz-adv-x="553" d="M548 562h-68l10 75h-243l-30 -217h116q102 0 157 -61t41 -159q-13 -92 -86 -148.5t-173 -56.5q-141 0 -224 99l48 42q64 -78 177 -78q74 0 122.5 40t57.5 104q10 70 -27.5 112.5t-107.5 42.5h-189l49 343h390z" />
<glyph unicode="6" horiz-adv-x="593" d="M408 642q-80 0 -142.5 -73t-84.5 -192q72 58 172 58q111 0 172.5 -62t47.5 -158q-13 -97 -87.5 -158.5t-178.5 -61.5q-117 0 -174 98.5t-34 256.5q22 158 109 256.5t209 98.5t189 -73l-48 -43q-51 53 -150 53zM315 58q70 0 120 44t59 113q10 68 -32.5 112.5t-119.5 44.5 q-51 0 -97 -19.5t-75 -54.5q-8 -108 32 -174t113 -66z" />
<glyph unicode="7" horiz-adv-x="627" d="M207 562h-69l20 138h502l-6 -42l-423 -658h-81l409 637h-342z" />
<glyph unicode="8" horiz-adv-x="596" d="M150 531q11 77 79 125.5t168 48.5t155 -48.5t44 -125.5q-7 -56 -47.5 -97.5t-103.5 -60.5q67 -20 100.5 -68t24.5 -114q-12 -87 -88 -141.5t-185 -54.5t-170 54.5t-49 141.5q10 66 57 114t120 68q-57 19 -85 61t-20 97zM158 201q-8 -63 33 -103t114 -40q74 0 126.5 40 t61.5 103q9 64 -32.5 104t-115.5 40q-73 0 -125.5 -40t-61.5 -104zM226 520q-8 -53 28.5 -86.5t100.5 -33.5t108.5 33.5t52.5 86.5q8 54 -28 88t-100 34t-109 -34t-53 -88z" />
<glyph unicode="9" horiz-adv-x="591" d="M272 58q83 0 148 71.5t87 188.5q-74 -66 -172 -66q-111 0 -171.5 63t-46.5 163q13 101 87 164t178 63q117 0 173.5 -98t34.5 -257q-23 -159 -112.5 -257t-215.5 -98t-194 73l48 42q54 -52 156 -52zM374 642q-70 0 -119 -45.5t-60 -118.5q-10 -72 32 -117t120 -45 q52 0 97.5 22.5t73.5 62.5q7 112 -32.5 176.5t-111.5 64.5z" />
<glyph unicode=":" d="M81 0l15 111h76l-15 -111h-76zM135 389l16 111h76l-16 -111h-76z" />
<glyph unicode=";" d="M27 -163l-28 34q35 31 60.5 97t36.5 143h76q-11 -82 -52 -155.5t-93 -118.5zM135 389l16 111h76l-16 -111h-76z" />
<glyph unicode="&#x3c;" horiz-adv-x="641" d="M100 325l8 52l563 238l-12 -75l-445 -188l393 -189l-11 -76z" />
<glyph unicode="=" horiz-adv-x="661" d="M608 200h-500l9 60h500zM644 449h-500l8 61h500z" />
<glyph unicode="&#x3e;" horiz-adv-x="641" d="M637 376l-7 -52l-562 -238l10 75l446 188l-393 189l11 76z" />
<glyph unicode="?" horiz-adv-x="509" d="M183 501h-68l18 133q97 71 219 71q93 0 143 -48.5t39 -128.5q-7 -51 -29.5 -85.5t-51 -53.5t-56.5 -38.5t-51 -53.5t-30 -84h-76q9 62 32.5 103.5t52 62.5t56.5 38.5t50 43.5t27 65q7 51 -25.5 84.5t-96.5 33.5q-78 0 -138 -39zM210 0l15 111h76l-15 -111h-76z" />
<glyph unicode="@" horiz-adv-x="1052" d="M830 -66l34 -39q-153 -125 -371 -125q-211 0 -325 133.5t-84 346.5t181.5 346.5t362.5 133.5q212 0 326.5 -126.5t86.5 -328.5q-10 -72 -36 -128t-60 -88t-70.5 -47.5t-73.5 -15.5q-56 0 -91 34.5t-27 89.5q-33 -58 -86 -91t-118 -33q-88 0 -133.5 67.5t-30.5 176.5 q17 118 103 191.5t207 73.5q106 0 176 -35l-43 -304q-7 -50 12 -79.5t52 -29.5q44 0 85.5 56t56.5 162q25 174 -71 284t-274 110q-176 0 -304.5 -117.5t-154.5 -301.5q-25 -184 70 -301.5t271 -117.5q203 0 329 103zM688 208l30 217q-49 19 -117 19q-80 0 -138.5 -57 t-71.5 -147q-11 -82 24 -132.5t102 -50.5q64 0 112 43.5t59 107.5z" />
<glyph unicode="A" horiz-adv-x="815" d="M593 0l7 56h75l-46 143h-387l-89 -143h75l-7 -56h-231l8 56h74l359 588h-82l8 56h190l209 -644h76l-7 -56h-232zM494 616l-213 -351h328z" />
<glyph unicode="B" horiz-adv-x="630" d="M115 644l8 56h335q79 0 122.5 -48.5t32.5 -125.5q-7 -53 -37.5 -94t-74.5 -62q56 -16 84.5 -64.5t18.5 -115.5q-12 -84 -73 -137t-148 -53h-358l7 56h75l82 588h-74zM189 66h177q61 0 104 37t51 96t-24.5 96t-93.5 37h-176zM425 634h-156l-33 -236h157q54 0 91.5 33 t45.5 85q7 52 -22 85t-83 33z" />
<glyph unicode="C" horiz-adv-x="725" d="M729 506h-69l13 91q-65 42 -176 42q-123 0 -211.5 -80.5t-105.5 -208.5q-19 -128 47 -208.5t189 -80.5q134 0 219 83l42 -48q-115 -101 -275 -101q-157 0 -241.5 98.5t-61.5 256.5q22 158 134 256.5t270 98.5q154 0 244 -71z" />
<glyph unicode="D" horiz-adv-x="762" d="M120 644l8 56h335q154 0 237.5 -97.5t61.5 -252.5q-23 -155 -133 -252.5t-264 -97.5h-335l7 56h75l82 588h-74zM681 350q17 125 -46.5 204.5t-180.5 79.5h-180l-80 -568h180q118 0 203.5 79.5t103.5 204.5z" />
<glyph unicode="E" horiz-adv-x="647" d="M577 0h-548q2 10 4.5 28t3.5 27h74q52 365 83 589h-75q6 40 8 56h541q-3 -23 -9.5 -69.5t-10.5 -69.5h-68q2 12 5 36.5t5 36.5h-316q-6 -40 -17.5 -122t-16.5 -122h334q-2 -11 -5 -33t-5 -33h-333q-11 -74 -37 -259h323q2 12 5.5 36.5t5.5 36.5h68q-10 -82 -19 -138z" />
<glyph unicode="F" horiz-adv-x="632" d="M646 562h-68l9 72h-313l-36 -259h332l-10 -65h-331l-36 -254h75l-8 -56h-230l7 56h75l82 588h-74l8 56h538z" />
<glyph unicode="G" horiz-adv-x="743" d="M732 511h-69l13 91q-66 37 -179 37q-123 0 -211.5 -81t-105.5 -209q-19 -127 47 -207.5t189 -80.5q105 0 182 57l27 189h-193l9 66h274l-38 -277q-115 -101 -275 -101q-158 0 -241.5 98.5t-61.5 256.5t134.5 256.5t269.5 98.5q156 0 247 -66z" />
<glyph unicode="H" horiz-adv-x="787" d="M617 644l8 56h231l-9 -56h-74l-83 -588h75l-7 -56h-231l7 56h75l38 268h-416l-38 -268h75l-8 -56h-230l7 56h75l82 588h-74l8 56h230l-8 -56h-74l-36 -254h416l36 254h-75z" />
<glyph unicode="I" horiz-adv-x="290" d="M120 644l8 56h230l-8 -56h-74l-83 -588h75l-8 -56h-230l7 56h75l82 588h-74z" />
<glyph unicode="J" horiz-adv-x="608" d="M437 644l8 56h231l-8 -56h-75l-55 -394q-16 -113 -97.5 -184t-196.5 -71q-114 0 -181 50l18 130h69l-13 -90q40 -24 112 -24q80 0 138 52.5t70 136.5l55 394h-75z" />
<glyph unicode="K" horiz-adv-x="697" d="M456 0l7 56h63l-204 286l-101 -90l-28 -196h75l-8 -56h-230l7 56h75l82 588h-74l8 56h230l-8 -56h-74l-41 -288l330 288h-54l9 56h230l-8 -56h-75l-283 -248l235 -340h78l-7 -56h-234z" />
<glyph unicode="L" horiz-adv-x="652" d="M592 0h-562l7 56h75l82 588h-74l8 56h230l-8 -56h-74l-82 -578h339l10 72h69z" />
<glyph unicode="M" horiz-adv-x="986" d="M726 0l7 56h75l73 524l-357 -580h-62l-195 580l-74 -524h75l-8 -56h-230l7 56h75l82 588h-74l8 56h181l199 -591l365 591h181l-8 -56h-74l-83 -588h74l-7 -56h-230z" />
<glyph unicode="N" horiz-adv-x="810" d="M639 644l8 56h231l-8 -56h-75l-90 -644h-81l-357 577l-74 -521h75l-8 -56h-230l7 56h75l82 588h-74l8 56h156l357 -577l73 521h-75z" />
<glyph unicode="O" horiz-adv-x="804" d="M99 350q22 157 133.5 256t267.5 99q157 0 241.5 -98.5t62.5 -256.5q-23 -158 -135 -256.5t-269 -98.5q-156 0 -239.5 99t-61.5 256zM180 350q-19 -127 46 -208t184 -81q120 0 207 80.5t105 208.5t-46 208.5t-185 80.5q-119 0 -206.5 -81t-104.5 -208z" />
<glyph unicode="P" horiz-adv-x="622" d="M120 644l8 56h321q96 0 147.5 -60.5t38.5 -157.5q-14 -96 -83 -157t-164 -61h-166l-29 -208h75l-8 -56h-230l7 56h75l82 588h-74zM431 634h-157l-42 -304h157q64 0 109.5 42.5t54.5 109.5t-25 109.5t-97 42.5z" />
<glyph unicode="Q" horiz-adv-x="804" d="M702 -10l-67 78q-103 -73 -235 -73q-156 0 -239.5 99t-61.5 256t133.5 256t267.5 99q157 0 241.5 -98.5t62.5 -256.5q-21 -140 -114 -236l67 -76zM486 242l54 48l102 -118q65 73 80 178q18 128 -46 208.5t-185 80.5q-119 0 -206.5 -81t-104.5 -208q-19 -127 46 -208 t184 -81q103 0 181 59z" />
<glyph unicode="R" horiz-adv-x="634" d="M402 0l7 56h68l-147 244h-103l-34 -244h75l-8 -56h-230l7 56h75l82 588h-74l8 56h342q88 0 136 -55.5t35 -144.5q-13 -87 -74 -142.5t-147 -57.5l147 -244h74l-7 -56h-232zM236 365h178q55 0 96 38t49 97q9 58 -21 96t-86 38h-178z" />
<glyph unicode="S" horiz-adv-x="555" d="M555 508h-68l13 94q-55 37 -141 37q-62 0 -102.5 -33.5t-48.5 -86.5q-6 -45 27.5 -75t85 -49t102.5 -39.5t83.5 -58.5t24.5 -94q-13 -93 -87.5 -150.5t-173.5 -57.5q-132 0 -215 64l18 130h69l-13 -92q57 -36 149 -36q67 0 115 38.5t56 99.5q4 30 -12.5 53t-47 38 t-68 28.5t-74.5 29.5t-66.5 36.5t-45 54.5t-9.5 78q12 84 78.5 136t157.5 52q128 0 212 -66z" />
<glyph unicode="T" horiz-adv-x="745" d="M257 0l8 56h74l82 578h-204l-10 -72h-69l20 138h626l-20 -138h-68l10 72h-204l-82 -578h75l-7 -56h-231z" />
<glyph unicode="U" horiz-adv-x="821" d="M120 644l8 56h230l-8 -56h-74l-48 -339q-15 -109 38 -176.5t152 -67.5q101 0 172.5 67.5t86.5 176.5l48 339h-75l8 56h231l-8 -56h-75l-47 -339q-20 -142 -116 -226t-235 -84q-138 0 -209 83.5t-52 226.5l47 339h-74z" />
<glyph unicode="V" horiz-adv-x="806" d="M80 644l8 56h227l-9 -56h-71l179 -560l336 560h-71l8 56h227l-8 -56h-71l-391 -644h-83l-210 644h-71z" />
<glyph unicode="W" horiz-adv-x="1173" d="M1040 644l9 56h232l-8 -56h-78l-316 -644h-87l-122 596l-289 -596h-88l-136 644h-77l8 56h233l-8 -56h-78l115 -540l291 596h87l123 -596l266 540h-77z" />
<glyph unicode="X" horiz-adv-x="752" d="M510 0l7 56h64l-164 245l-232 -245h65l-7 -56h-235l7 56h79l284 301l-189 287h-79l8 56h235l-8 -56h-64l152 -231l218 231h-63l8 56h235l-8 -56h-80l-268 -287l198 -301h79l-7 -56h-235z" />
<glyph unicode="Y" horiz-adv-x="705" d="M572 644l8 56h233l-8 -56h-77l-299 -382l-29 -206h75l-7 -56h-231l7 56h75l29 206l-192 382h-76l8 56h233l-8 -56h-72l158 -309l244 309h-71z" />
<glyph unicode="Z" horiz-adv-x="731" d="M666 0h-602q1 7 2.5 21t2.5 21q94 99 283 296t283 296h-406q0 -3 -9 -73h-69q3 24 9.5 70t10.5 69h587q-2 -15 -6 -43q-94 -98 -282.5 -295.5t-282.5 -296.5h419q2 12 5.5 36.5t5.5 36.5h68q-10 -82 -19 -138z" />
<glyph unicode="[" horiz-adv-x="332" d="M83 -125l123 875h156l-9 -61h-80l-106 -753h80l-8 -61h-156z" />
<glyph unicode="\" horiz-adv-x="358" d="M353 -100h-77l-184 825h76z" />
<glyph unicode="]" horiz-adv-x="332" d="M337 750l-123 -875h-156l8 61h80l106 753h-80l9 61h156z" />
<glyph unicode="^" horiz-adv-x="509" d="M139 579l224 154l181 -154l-45 -39l-146 124l-181 -124z" />
<glyph unicode="_" horiz-adv-x="582" d="M567 -93h-579l9 61h579z" />
<glyph unicode="`" horiz-adv-x="324" d="M166 703l53 47l126 -146l-36 -32z" />
<glyph unicode="a" horiz-adv-x="575" d="M402 0l15 114q-31 -54 -83 -86t-115 -32q-74 0 -115.5 39.5t-32.5 101.5q11 72 82.5 117t176.5 45q57 0 112 -11l4 30q8 57 -23.5 91.5t-89.5 34.5q-76 0 -132 -22l-9 -60h-65l13 98q82 45 197 45q94 0 145 -51.5t40 -133.5l-7 -54l-30 -210h70l-7 -56h-146zM434 236 q-42 15 -106 15q-73 0 -123 -30t-57 -77q-6 -40 24 -64t82 -24q67 0 118.5 52.5t61.5 127.5z" />
<glyph unicode="b" horiz-adv-x="607" d="M119 669l7 56h146l-48 -340q32 55 86 87t119 32q89 0 135.5 -70.5t30.5 -183.5t-103.5 -184t-212.5 -71q-109 0 -180 34l90 640h-70zM390 443q-67 0 -117.5 -43t-61.5 -107l-30 -218q52 -19 124 -19q83 0 142.5 53.5t71.5 139.5q12 87 -24 140.5t-105 53.5z" />
<glyph unicode="c" horiz-adv-x="540" d="M532 357h-66l9 65q-38 22 -107 22q-81 0 -139.5 -54t-70.5 -140t31 -140t124 -54q89 0 147 53l36 -41q-79 -73 -196 -73q-113 0 -173.5 71t-44.5 184t96.5 184t193.5 71q110 0 174 -48z" />
<glyph unicode="d" horiz-adv-x="617" d="M441 0l18 132q-34 -62 -89 -98.5t-121 -36.5q-79 0 -126 53t-47 142q0 134 84 222.5t206 88.5q82 0 140 -38q5 34 14.5 102t14.5 102h-70q3 21 7 56h146q-58 -420 -94 -670h70q-3 -19 -7 -55h-146zM290 57q59 0 106.5 40.5t66.5 102.5q9 28 14.5 59t12 84t8.5 64 q-52 35 -134 35q-87 0 -149 -68.5t-62 -170.5q0 -67 37 -106.5t100 -39.5z" />
<glyph unicode="e" horiz-adv-x="568" d="M552 229h-397q-1 -6 -1 -19q0 -70 44 -112.5t119 -42.5q92 0 150 55q6 -7 18.5 -21.5t18.5 -21.5q-81 -72 -200 -72q-103 0 -164 57.5t-61 153.5q0 129 80 214t196 85q93 0 148 -57t55 -152q0 -22 -3 -46zM163 282h320q1 8 1 23q0 63 -37.5 101t-98.5 38 q-66 0 -117 -44.5t-68 -117.5z" />
<glyph unicode="f" horiz-adv-x="363" d="M91 439q2 11 4.5 31t3.5 30h70q2 13 6 41q10 82 57 135.5t125 53.5q72 0 109 -47q-44 -38 -46 -40q-24 26 -65 26q-37 0 -65 -24t-33 -61l-12 -84h160q-3 -21 -9 -61h-159q-10 -64 -28 -192l-27 -192h70q-4 -35 -7 -55h-216q2 10 4.5 28t3.5 27h69q9 64 27.5 192 t27.5 192h-70z" />
<glyph unicode="g" horiz-adv-x="583" d="M45 -157l46 40q50 -52 147 -52q77 0 132.5 47t66.5 122l15 115q-33 -55 -86.5 -87t-118.5 -32q-89 0 -135.5 68t-31.5 176q17 118 105 191.5t212 73.5q109 0 182 -35l-66 -470q-15 -102 -94 -166t-190 -64q-119 0 -184 73zM465 208l30 217q-51 19 -121 19 q-83 0 -144 -56.5t-74 -147.5q-11 -82 26 -132.5t106 -50.5q67 0 117 43.5t60 107.5z" />
<glyph unicode="h" horiz-adv-x="650" d="M124 669l7 56h146l-51 -358q35 63 91.5 100.5t122.5 37.5q80 0 123 -53t31 -137l-37 -259h70l-7 -56h-146l42 302q9 64 -23.5 103t-93.5 39q-69 0 -121.5 -55t-66.5 -136l-28 -197h70l-7 -56h-216l7 56h70l87 613h-70z" />
<glyph unicode="i" horiz-adv-x="275" d="M91 444q6 40 8 56h146q-21 -149 -63 -445h70q-4 -35 -7 -55h-146q42 296 62 444h-70zM184 607q2 14 6.5 45t6.5 48h76q-2 -17 -6.5 -48t-6.5 -45h-76z" />
<glyph unicode="j" horiz-adv-x="254" d="M92 444l8 56h146l-79 -560q-11 -76 -63.5 -123t-125.5 -47q-74 0 -115 49l46 40q23 -28 71 -28q42 0 73 30t37 77l72 506h-70zM184 607l14 93h76l-14 -93h-76z" />
<glyph unicode="k" horiz-adv-x="572" d="M564 0h-105l-174 231l-87 -69l-15 -106h70l-7 -56h-216l7 56h70l87 613h-70l7 56h146l-66 -471l72 54l153 136h-52l8 56h213l-8 -56h-67l-189 -166l168 -222h62z" />
<glyph unicode="l" horiz-adv-x="325" d="M121 669l7 56h146l-86 -613q-3 -25 9 -40.5t34 -15.5q27 0 42 15l35 -41q-38 -35 -93 -35q-53 0 -81 33.5t-21 88.5l78 552h-70z" />
<glyph unicode="m" horiz-adv-x="920" d="M352 0q4 36 7 55h69q11 75 37 262q2 18 2 26q0 46 -25 73.5t-68 27.5q-61 0 -105 -46t-55 -118q-22 -150 -32 -225h70q-4 -35 -7 -55h-216q2 10 4.5 28t3.5 27h69q22 148 55 389h-70q6 40 8 56h146q-2 -15 -6.5 -47.5t-7.5 -49.5q68 102 182 102q48 0 81 -27t44 -74 q71 101 190 101q62 0 100 -42.5t38 -110.5q0 -23 -2 -35q-11 -75 -37 -262h70q-1 -9 -3.5 -27t-4.5 -28h-145q8 55 22.5 161.5t21.5 155.5q1 8 1 24q0 47 -25 75t-67 28q-61 0 -105.5 -46t-55.5 -118q-8 -52 -31 -225h69q-4 -35 -7 -55h-215z" />
<glyph unicode="n" horiz-adv-x="650" d="M620 0h-146l42 302q9 64 -23.5 103t-93.5 39q-66 0 -118 -51.5t-69 -127.5l-29 -209h70l-7 -56h-216l7 56h70l55 388h-70l8 56h146l-18 -127q35 61 91 96.5t121 35.5q80 0 123 -53t31 -137l-37 -259h70z" />
<glyph unicode="o" horiz-adv-x="605" d="M82 250q16 113 97 184t194 71t174 -71t45 -184t-97 -184t-194 -71t-174 71t-45 184zM158 250q-12 -86 30 -140t121 -54q80 0 137.5 54t69.5 140t-30 140t-122 54q-79 0 -136.5 -54t-69.5 -140z" />
<glyph unicode="p" horiz-adv-x="617" d="M91 444q6 40 8 56h146q-11 -83 -19 -134q34 63 89 100t121 37q79 0 125.5 -55t46.5 -146q0 -133 -82.5 -219t-205.5 -86q-85 0 -140 37q-5 -35 -14.5 -103.5t-14.5 -99.5h70q-2 -16 -8 -56h-214q1 17 7 56h69q58 408 86 613h-70zM210 253q-3 -26 -10.5 -80t-11.5 -81 q52 -35 133 -35q89 0 149.5 65.5t60.5 165.5q0 70 -37 112t-99 42q-69 0 -121.5 -54.5t-63.5 -134.5z" />
<glyph unicode="q" horiz-adv-x="592" d="M550 -225h-145l47 339q-33 -55 -86.5 -86.5t-118.5 -31.5q-89 0 -135.5 68t-31.5 176q17 118 105 191.5t212 73.5q109 0 182 -35l-90 -639h70zM465 208l30 216q-49 20 -121 20q-84 0 -144.5 -56.5t-73.5 -147.5q-11 -82 25.5 -132.5t106.5 -50.5q67 0 117 43t60 108z" />
<glyph unicode="r" horiz-adv-x="458" d="M89 444l8 56h146l-21 -147q35 70 92.5 111t126.5 41h35l-18 -130h-66l9 64q-72 0 -128 -63t-69 -153h-1l-23 -167h70l-7 -56h-216l7 56h70l55 388h-70z" />
<glyph unicode="s" horiz-adv-x="447" d="M428 365h-66l8 58q-32 21 -87 21q-40 0 -67.5 -21t-32.5 -54q-4 -29 20 -49.5t61 -34t73.5 -29t59.5 -44t17 -69.5q-9 -65 -66.5 -106.5t-131.5 -41.5q-98 0 -158 49l13 94h66l-8 -58q35 -24 95 -24q44 0 76.5 24t37.5 61q4 28 -20 47t-61 31.5t-73.5 28t-59.5 45.5 t-17 73q9 62 60.5 101t120.5 39q97 0 153 -46z" />
<glyph unicode="t" horiz-adv-x="437" d="M89 439l8 61h75l16 115h76l-16 -115h200l-9 -61h-199l-38 -267q-7 -51 19 -83.5t73 -32.5q48 0 87 32l35 -40q-56 -53 -139 -53q-78 0 -120 49.5t-31 130.5l38 264h-75z" />
<glyph unicode="u" horiz-adv-x="645" d="M464 444l8 56h146l-63 -444h70l-7 -56h-146l18 129q-36 -62 -92 -98t-122 -36q-80 0 -122 55.5t-30 144.5l35 249h-70l8 56h146l-41 -295q-10 -67 22.5 -108t92.5 -41q71 0 124.5 57.5t65.5 140.5l27 190h-70z" />
<glyph unicode="v" horiz-adv-x="601" d="M52 444l8 56h121l130 -419l216 363h-70l8 56h216l-8 -56h-71l-263 -444h-77l-139 444h-71z" />
<glyph unicode="w" horiz-adv-x="881" d="M735 444l9 56h217l-8 -56h-72l-225 -444h-71l-89 396l-199 -396h-72l-101 444h-72l8 56h126l90 -401l200 401h70l86 -401l175 345h-72z" />
<glyph unicode="x" horiz-adv-x="578" d="M570 0h-108q-48 72 -144 218q-51 -55 -153 -163h60q-3 -19 -7 -55h-211q3 20 7 55h64q32 34 95.5 101t95.5 100q-42 62 -126 188h-65q2 9 5 27.5t4 28.5h108l135 -207q23 26 70 76t71 75h-59q2 16 8 56h211q-6 -40 -8 -56h-66q-20 -21 -56.5 -59.5t-66 -69.5t-56.5 -59 l135 -201h65q-1 -9 -3.5 -27t-4.5 -28z" />
<glyph unicode="y" horiz-adv-x="600" d="M456 444l8 56h216l-8 -56h-71l-323 -541q-79 -133 -170 -133q-71 0 -107 43l45 40q19 -22 65 -22q30 0 54.5 24.5t53.5 73.5l43 72l-140 443h-70l8 56h121l130 -415l215 359h-70z" />
<glyph unicode="z" horiz-adv-x="565" d="M187 369h-66q6 43 18 131h426q-1 -7 -3 -20.5t-3 -20.5q-74 -75 -209.5 -214.5t-179.5 -184.5h272q6 44 10 70h65q-3 -21 -9 -64.5t-9 -65.5h-435q1 7 2.5 20t2.5 20q65 66 192.5 199t192.5 200h-258q-3 -24 -9 -70z" />
<glyph unicode="{" horiz-adv-x="392" d="M115 280l8 60q27 0 48 30.5t33.5 76t31 98.5t38.5 98.5t58.5 76t89.5 30.5l-9 -61q-33 0 -57.5 -36t-40.5 -89t-31.5 -107t-40.5 -96.5t-58 -50.5q31 -8 44 -50t13.5 -95t1.5 -105.5t15.5 -88t47.5 -35.5l-8 -61q-51 0 -81 30t-37.5 75t-10.5 97.5t-3 97.5t-12.5 75 t-39.5 30z" />
<glyph unicode="|" d="M142 -100h-76l116 825h76z" />
<glyph unicode="}" horiz-adv-x="392" d="M364 340l-8 -60q-28 0 -49 -30t-33.5 -75t-30.5 -97.5t-38 -97.5t-58 -75t-89 -30l8 61q34 0 58.5 35.5t40 88t31 105.5t40.5 95t58 50q-31 8 -44 50.5t-13.5 96.5t-1.5 107t-15.5 89t-47.5 36l9 61q51 0 80.5 -30.5t37 -76t10.5 -98.5t3 -98.5t12.5 -76t39.5 -30.5z" />
<glyph unicode="~" horiz-adv-x="471" d="M126 255q-2 2 -35 41q57 49 107 54q32 0 82 -18t74 -18q37 0 73 31q33 -39 35 -41q-56 -49 -105 -54q-32 0 -81.5 18t-73.5 18q-39 0 -76 -31z" />
<glyph unicode="&#xa1;" d="M132 365h76l-70 -493h-76zM237 577l-15 -110h-76l15 110h76z" />
<glyph unicode="&#xa2;" horiz-adv-x="540" d="M544 445h-66q2 20 11 76q-38 21 -93 22l-54 -387q80 5 131 53q13 -14 37 -42q-76 -66 -177 -72q-2 -17 -6.5 -49t-6.5 -46h-50q2 14 6.5 46t6.5 49q-88 9 -139 65.5t-51 145.5q0 119 74.5 202.5t186.5 94.5q3 17 7.5 49.5t6.5 47.5h50q-2 -16 -6.5 -48t-6.5 -48 q97 -4 154 -47q-5 -38 -15 -112zM292 160q18 126 52 378q-76 -13 -125.5 -75t-49.5 -149q0 -62 32.5 -103t90.5 -51z" />
<glyph unicode="&#xa3;" horiz-adv-x="601" d="M541 0h-496l8 63h55l35 251h-55l9 61h55l17 128q13 90 82.5 146t164.5 56q126 0 208 -64l-19 -133h-68l14 100q-55 34 -138 34q-67 0 -111.5 -40.5t-53.5 -106.5l-18 -120h277l-8 -61h-277l-36 -251h295l11 75h69z" />
<glyph unicode="&#xa4;" horiz-adv-x="548" d="M144 350q8 61 44 102l-68 79l53 47l68 -80q46 31 107 31q58 0 97 -31l91 80l41 -46l-91 -80q23 -44 16 -102q-9 -60 -46 -103l69 -79l-53 -46l-69 79q-47 -30 -106 -30t-97 30l-91 -79l-40 47l90 78q-24 42 -15 103zM203 350q-8 -58 20.5 -94t81.5 -36t91.5 36t46.5 94 t-20 94t-82 36q-53 0 -91.5 -36t-46.5 -94z" />
<glyph unicode="&#xa5;" horiz-adv-x="704" d="M572 644l8 56h232l-8 -56h-77l-298 -382l-4 -27h196l-7 -46h-196l-9 -69h196l-7 -46h-196l-10 -74h-81l10 74h-196l6 46h197l9 69h-196l6 46h197l4 27l-192 382h-76l8 56h232l-8 -56h-72l158 -309l245 309h-71z" />
<glyph unicode="&#xa6;" d="M257 725q-6 -42 -24 -175t-29 -206h-76q36 254 53 381h76zM141 -100h-76q18 126 54 380h76q-36 -254 -54 -380z" />
<glyph unicode="&#xa7;" horiz-adv-x="553" d="M561 521h-68l15 102q-57 41 -141 41q-65 0 -107.5 -33.5t-50.5 -87.5q-5 -34 12 -59t47 -41.5t67.5 -30.5t74.5 -29.5t66.5 -35t45.5 -51t10 -73.5q-12 -83 -77 -137q51 -46 42 -113q-13 -91 -87.5 -147t-174.5 -56q-126 0 -205 76l19 133h68l-14 -101q53 -42 138 -42 q68 0 117 37t57 96q5 36 -18.5 62t-62 40.5t-83.5 33t-83 38.5t-60 57.5t-15 89.5q11 81 72 131q-48 46 -37 119q12 85 80 137.5t162 52.5q129 0 210 -76zM450 219q5 34 -17.5 59t-52.5 38t-79.5 32t-75.5 33q-44 -34 -51 -88q-4 -29 7.5 -51.5t37 -39t51.5 -27.5t63 -26 t59 -26q49 36 58 96z" />
<glyph unicode="&#xa8;" horiz-adv-x="467" d="M165 607l14 93h76l-14 -93h-76zM395 607l14 93h76l-14 -93h-76z" />
<glyph unicode="&#xa9;" horiz-adv-x="804" d="M99 350q22 157 133.5 256t267.5 99q157 0 241.5 -98.5t62.5 -256.5q-23 -158 -135 -256.5t-269 -98.5q-156 0 -239.5 99t-61.5 256zM159 350q-19 -134 50.5 -219t197.5 -85q129 0 222 84.5t113 219.5q18 135 -51 219.5t-198 84.5q-128 0 -221.5 -85t-112.5 -219zM612 408 h-45l8 62q-39 24 -96 24q-60 0 -103 -39.5t-52 -103.5q-9 -65 22.5 -104.5t92.5 -39.5q72 0 121 44l28 -30q-67 -61 -160 -61q-84 0 -129 53t-33 138q12 84 72 137t144 53q91 0 142 -45z" />
<glyph unicode="&#xaa;" horiz-adv-x="478" d="M191 596h-43l10 71q53 37 131 37q70 0 108.5 -40t28.5 -104l-3 -20l-26 -190h-57l10 74q-49 -77 -133 -77q-51 0 -79.5 28t-21.5 73q7 49 56.5 79.5t121.5 30.5q36 0 74 -5l1 7q7 45 -16.5 71.5t-67.5 26.5q-51 0 -88 -19zM362 511q-26 11 -70 11q-48 0 -82 -19.5 t-38 -50.5q-4 -27 16 -43.5t55 -16.5q44 0 78 34.5t41 84.5z" />
<glyph unicode="&#xab;" horiz-adv-x="617" d="M281 72l-175 203l232 203l40 -47l-179 -156l135 -156zM502 72l-175 203l232 203l40 -47l-179 -156l135 -156z" />
<glyph unicode="&#xac;" horiz-adv-x="661" d="M606 180h-76l21 155h-424l9 60h500z" />
<glyph unicode="&#xad;" horiz-adv-x="397" d="M352 260h-235l8 60h236z" />
<glyph unicode="&#xae;" horiz-adv-x="466" d="M126 525q11 80 68 130t137 50t122.5 -50t31.5 -130q-10 -80 -67.5 -130t-137.5 -50q-79 0 -122 50t-32 130zM162 525q-9 -66 25 -107.5t98 -41.5t109.5 41.5t54.5 107.5t-24.5 107.5t-97.5 41.5t-109.5 -41.5t-55.5 -107.5zM338 430l-49 80h-23l-11 -80h-28l27 192h77 q25 0 38.5 -15.5t9.5 -40.5q-4 -24 -20 -39.5t-39 -16.5l48 -80h-30zM278 600l-9 -67h46q14 0 24 9t12 24t-5 24.5t-21 9.5h-47z" />
<glyph unicode="&#xaf;" horiz-adv-x="468" d="M478 649h-306l7 51h306z" />
<glyph unicode="&#xb0;" horiz-adv-x="413" d="M133 574q10 68 59 111t117 43t104.5 -43t26.5 -111t-58.5 -110.5t-116.5 -42.5t-104.5 42.5t-27.5 110.5zM198 574q-5 -42 16 -68.5t60 -26.5t67.5 27t34.5 68q6 43 -15 70t-60 27t-67.5 -27t-35.5 -70z" />
<glyph unicode="&#xb1;" horiz-adv-x="582" d="M413 638l-26 -180h178l-8 -61h-178l-25 -179h-66l25 179h-177l9 61h177l25 180h66zM514 98h-420l9 60h420z" />
<glyph unicode="&#xb2;" horiz-adv-x="319" d="M147 615l8 58q46 33 106 33q44 0 70 -26.5t20 -68.5q-6 -44 -52.5 -94.5t-83.5 -76.5t-46 -30h159l-5 -35h-212l5 35q7 5 19.5 13t44 31.5t56.5 46.5t47 52t25 53q4 29 -10.5 47t-45.5 18q-35 0 -66 -17l-6 -39h-33z" />
<glyph unicode="&#xb3;" horiz-adv-x="320" d="M145 618l8 58q44 28 105 28q45 0 70 -23t20 -59q-8 -53 -70 -74q31 -10 46.5 -32t11.5 -52q-6 -41 -40.5 -66.5t-84.5 -25.5q-65 0 -104 47l27 24q24 -36 80 -36q31 0 53.5 17.5t26.5 43.5q4 29 -14 46.5t-51 17.5h-19l4 32h21q28 0 47.5 15t22.5 38t-12 37.5t-42 14.5 q-37 0 -67 -14l-5 -37h-34z" />
<glyph unicode="&#xb4;" horiz-adv-x="323" d="M319 750l40 -47l-180 -131l-27 32z" />
<glyph unicode="&#xb5;" horiz-adv-x="652" d="M93 444l8 56h146l-41 -295q-10 -67 22.5 -108t92.5 -41q70 0 123.5 56.5t66.5 139.5l27 192h-70l8 56h146l-63 -444h70l-7 -56h-146l18 133q-35 -64 -91.5 -101t-122.5 -37q-69 0 -98 54l-30 -218h71l-8 -56h-217l8 56h71l86 613h-70z" />
<glyph unicode="&#xb6;" horiz-adv-x="618" d="M666 700l-10 -66h-84l-114 -809h-76l114 809h-125l-113 -809h-76l74 525q-76 0 -118 49t-31 126t66.5 126t131.5 49h361z" />
<glyph unicode="&#xb7;" d="M115 245l15 110h76l-15 -110h-76z" />
<glyph unicode="&#xb8;" horiz-adv-x="302" d="M35 -160l33 29q25 -30 53 -30q45 0 49 35q2 14 -7.5 24t-21.5 17t-20 28.5t-3 56.5h44q-4 -26 1.5 -41.5t14.5 -22.5t18.5 -13.5t15 -19t2.5 -33.5q-5 -32 -31.5 -52t-65.5 -20q-50 0 -82 42z" />
<glyph unicode="&#xb9;" horiz-adv-x="274" d="M129 375l5 36h82l35 244l-98 -50l-13 31l117 64h42l-41 -289h51l-5 -36h-175z" />
<glyph unicode="&#xba;" horiz-adv-x="464" d="M126 525q11 79 68 129t136 50t121.5 -49.5t31.5 -129.5q-10 -79 -67 -129t-137 -50q-79 0 -121.5 49.5t-31.5 129.5zM182 525q-8 -59 21 -96t83 -37q55 0 94 37t47 96t-20.5 96t-82.5 37t-94 -37.5t-48 -95.5z" />
<glyph unicode="&#xbb;" horiz-adv-x="619" d="M191 478l174 -203l-231 -203l-40 47l178 156l-134 156zM412 478l174 -203l-231 -203l-40 47l178 156l-134 156z" />
<glyph unicode="&#xbf;" horiz-adv-x="515" d="M458 -51q-97 -76 -217 -76q-92 0 -141.5 49t-38.5 128q7 51 30 85.5t51.5 53.5t56.5 38.5t51 53.5t30 84h76q-9 -62 -33 -103.5t-52.5 -62.5t-56.5 -38.5t-50 -43.5t-27 -65q-7 -51 25 -84.5t95 -33.5q76 0 136 42l15 106h69zM385 577l-15 -110h-76l15 110h76z" />
<glyph unicode="&#xc0;" horiz-adv-x="815" d="M593 0l7 56h75l-46 143h-387l-89 -143h75l-7 -56h-231l8 56h74l359 588h-82l8 56h190l209 -644h76l-7 -56h-232zM494 616l-213 -351h328zM437 903l53 47l126 -146l-36 -32z" />
<glyph unicode="&#xc1;" horiz-adv-x="815" d="M593 0l7 56h75l-46 143h-387l-89 -143h75l-7 -56h-231l8 56h74l359 588h-82l8 56h190l209 -644h76l-7 -56h-232zM494 616l-213 -351h328zM590 950l40 -47l-180 -131l-27 32z" />
<glyph unicode="&#xc2;" horiz-adv-x="815" d="M593 0l7 56h75l-46 143h-387l-89 -143h75l-7 -56h-231l8 56h74l359 588h-82l8 56h190l209 -644h76l-7 -56h-232zM494 616l-213 -351h328zM365 837l176 113l144 -113l-45 -39l-109 87l-133 -87z" />
<glyph unicode="&#xc3;" horiz-adv-x="815" d="M593 0l7 56h75l-46 143h-387l-89 -143h75l-7 -56h-231l8 56h74l359 588h-82l8 56h190l209 -644h76l-7 -56h-232zM494 616l-213 -351h328zM374 826q-5 5 -14.5 16t-13.5 17q62 55 119 55q28 0 74 -18.5t69 -18.5q36 0 74 31q3 -4 13 -15t15 -18q-54 -49 -105 -54 q-32 0 -81.5 18.5t-73.5 18.5q-37 0 -76 -32z" />
<glyph unicode="&#xc4;" horiz-adv-x="815" d="M593 0l7 56h75l-46 143h-387l-89 -143h75l-7 -56h-231l8 56h74l359 588h-82l8 56h190l209 -644h76l-7 -56h-232zM494 616l-213 -351h328zM367 807l14 93h76l-14 -93h-76zM597 807l14 93h76l-14 -93h-76z" />
<glyph unicode="&#xc5;" horiz-adv-x="815" d="M593 0l7 56h75l-46 143h-387l-89 -143h75l-7 -56h-231l8 56h74l359 588h-82l8 56h190l209 -644h76l-7 -56h-232zM494 616l-213 -351h328zM451 872q5 36 29.5 58t59.5 22t53.5 -22t13.5 -58q-4 -35 -29 -57t-60 -22q-34 0 -53 22t-14 57zM483 872q-2 -21 8.5 -33.5 t31.5 -12.5q20 0 34.5 13t16.5 33q3 21 -7.5 34t-30.5 13q-21 0 -35.5 -13t-17.5 -34z" />
<glyph unicode="&#xc6;" horiz-adv-x="905" d="M402 0q9 64 27 194h-191q-11 -18 -85 -139h75q-3 -19 -7 -55h-231q6 36 8 55h74q59 98 179 294.5t179 294.5h-76q1 10 4 28.5t4 27.5h563q-3 -23 -9.5 -69.5t-9.5 -69.5h-69q1 12 5 36.5t5 36.5h-275q-5 -40 -16.5 -121.5t-17.5 -122.5h311l-9 -66h-311q-11 -74 -37 -259 h283q2 12 5.5 36.5t5.5 36.5h68q-10 -82 -19 -138h-433zM277 260h161q8 58 24 172.5t24 171.5q-27 -45 -209 -344z" />
<glyph unicode="&#xc7;" horiz-adv-x="725" d="M279 -160l33 29q25 -30 53 -30q45 0 49 35q2 14 -7.5 24t-21.5 17t-20 27.5t-4 54.5q-139 13 -211 109.5t-51 243.5q22 158 134 256.5t270 98.5q154 0 244 -71l-18 -128h-69l13 91q-65 42 -176 42q-123 0 -211.5 -80.5t-105.5 -208.5q-19 -128 47 -208.5t189 -80.5 q134 0 219 83l42 -48q-113 -100 -272 -101q-3 -29 6 -45t21 -21t21 -19.5t5 -39.5q-5 -32 -31.5 -52t-65.5 -20q-50 0 -82 42z" />
<glyph unicode="&#xc8;" horiz-adv-x="647" d="M577 0h-548q2 10 4.5 28t3.5 27h74q52 365 83 589h-75q6 40 8 56h541q-3 -23 -9.5 -69.5t-10.5 -69.5h-68q2 12 5 36.5t5 36.5h-316q-6 -40 -17.5 -122t-16.5 -122h334q-2 -11 -5 -33t-5 -33h-333q-11 -74 -37 -259h323q2 12 5.5 36.5t5.5 36.5h68q-10 -82 -19 -138z M371 903l53 47l126 -146l-36 -32z" />
<glyph unicode="&#xc9;" horiz-adv-x="647" d="M577 0h-548q2 10 4.5 28t3.5 27h74q52 365 83 589h-75q6 40 8 56h541q-3 -23 -9.5 -69.5t-10.5 -69.5h-68q2 12 5 36.5t5 36.5h-316q-6 -40 -17.5 -122t-16.5 -122h334q-2 -11 -5 -33t-5 -33h-333q-11 -74 -37 -259h323q2 12 5.5 36.5t5.5 36.5h68q-10 -82 -19 -138z M525 950l40 -47l-180 -131l-27 32z" />
<glyph unicode="&#xca;" horiz-adv-x="647" d="M577 0h-548q2 10 4.5 28t3.5 27h74q52 365 83 589h-75q6 40 8 56h541q-3 -23 -9.5 -69.5t-10.5 -69.5h-68q2 12 5 36.5t5 36.5h-316q-6 -40 -17.5 -122t-16.5 -122h334q-2 -11 -5 -33t-5 -33h-333q-11 -74 -37 -259h323q2 12 5.5 36.5t5.5 36.5h68q-10 -82 -19 -138z M299 837l176 113l144 -113l-45 -39l-109 87l-133 -87z" />
<glyph unicode="&#xcb;" horiz-adv-x="647" d="M577 0h-548q2 10 4.5 28t3.5 27h74q52 365 83 589h-75q6 40 8 56h541q-3 -23 -9.5 -69.5t-10.5 -69.5h-68q2 12 5 36.5t5 36.5h-316q-6 -40 -17.5 -122t-16.5 -122h334q-2 -11 -5 -33t-5 -33h-333q-11 -74 -37 -259h323q2 12 5.5 36.5t5.5 36.5h68q-10 -82 -19 -138z M301 807l14 93h76l-14 -93h-76zM531 807l14 93h76l-14 -93h-76z" />
<glyph unicode="&#xcc;" horiz-adv-x="290" d="M120 644l8 56h230l-8 -56h-74l-83 -588h75l-8 -56h-230l7 56h75l82 588h-74zM175 903l53 47l126 -146l-36 -32z" />
<glyph unicode="&#xcd;" horiz-adv-x="290" d="M120 644l8 56h230l-8 -56h-74l-83 -588h75l-8 -56h-230l7 56h75l82 588h-74zM329 950l40 -47l-180 -131l-27 32z" />
<glyph unicode="&#xce;" horiz-adv-x="330" d="M139 644l8 56h230l-8 -56h-74l-83 -588h75l-8 -56h-230l7 56h75l82 588h-74zM123 837l176 113l144 -113l-45 -39l-109 87l-133 -87z" />
<glyph unicode="&#xcf;" horiz-adv-x="339" d="M143 644l8 56h230l-8 -56h-74l-83 -588h75l-8 -56h-230l7 56h75l82 588h-74zM130 807l14 93h76l-14 -93h-76zM360 807l14 93h76l-14 -93h-76z" />
<glyph unicode="&#xd0;" horiz-adv-x="783" d="M140 644l8 56h336q154 0 237 -97.5t61 -252.5t-132 -252.5t-264 -97.5h-336l7 56h75l38 268h-100l10 66h100l35 254h-75zM491 324h-239l-37 -258h179q118 0 203.5 79.5t103.5 204.5q17 125 -46 204.5t-181 79.5h-179l-34 -244h239z" />
<glyph unicode="&#xd1;" horiz-adv-x="810" d="M639 644l8 56h231l-8 -56h-75l-90 -644h-81l-357 577l-74 -521h75l-8 -56h-230l7 56h75l82 588h-74l8 56h156l357 -577l73 521h-75zM371 826q-5 5 -14.5 16t-13.5 17q62 55 119 55q28 0 74 -18.5t69 -18.5q36 0 74 31q3 -4 13 -15t15 -18q-54 -49 -105 -54 q-32 0 -81.5 18.5t-73.5 18.5q-37 0 -76 -32z" />
<glyph unicode="&#xd2;" horiz-adv-x="804" d="M99 350q22 157 133.5 256t267.5 99q157 0 241.5 -98.5t62.5 -256.5q-23 -158 -135 -256.5t-269 -98.5q-156 0 -239.5 99t-61.5 256zM180 350q-19 -127 46 -208t184 -81q120 0 207 80.5t105 208.5t-46 208.5t-185 80.5q-119 0 -206.5 -81t-104.5 -208zM431 903l53 47 l126 -146l-36 -32z" />
<glyph unicode="&#xd3;" horiz-adv-x="804" d="M99 350q22 157 133.5 256t267.5 99q157 0 241.5 -98.5t62.5 -256.5q-23 -158 -135 -256.5t-269 -98.5q-156 0 -239.5 99t-61.5 256zM180 350q-19 -127 46 -208t184 -81q120 0 207 80.5t105 208.5t-46 208.5t-185 80.5q-119 0 -206.5 -81t-104.5 -208zM584 950l40 -47 l-180 -131l-27 32z" />
<glyph unicode="&#xd4;" horiz-adv-x="804" d="M99 350q22 157 133.5 256t267.5 99q157 0 241.5 -98.5t62.5 -256.5q-23 -158 -135 -256.5t-269 -98.5q-156 0 -239.5 99t-61.5 256zM180 350q-19 -127 46 -208t184 -81q120 0 207 80.5t105 208.5t-46 208.5t-185 80.5q-119 0 -206.5 -81t-104.5 -208zM359 837l176 113 l144 -113l-45 -39l-109 87l-133 -87z" />
<glyph unicode="&#xd5;" horiz-adv-x="804" d="M99 350q22 157 133.5 256t267.5 99q157 0 241.5 -98.5t62.5 -256.5q-23 -158 -135 -256.5t-269 -98.5q-156 0 -239.5 99t-61.5 256zM180 350q-19 -127 46 -208t184 -81q120 0 207 80.5t105 208.5t-46 208.5t-185 80.5q-119 0 -206.5 -81t-104.5 -208zM368 826 q-4 5 -13.5 16t-14.5 17q62 55 119 55q28 0 74 -18.5t69 -18.5q36 0 74 31q3 -4 13 -15t15 -18q-54 -49 -105 -54q-32 0 -81.5 18.5t-73.5 18.5q-37 0 -76 -32z" />
<glyph unicode="&#xd6;" horiz-adv-x="804" d="M99 350q22 157 133.5 256t267.5 99q157 0 241.5 -98.5t62.5 -256.5q-23 -158 -135 -256.5t-269 -98.5q-156 0 -239.5 99t-61.5 256zM180 350q-19 -127 46 -208t184 -81q120 0 207 80.5t105 208.5t-46 208.5t-185 80.5q-119 0 -206.5 -81t-104.5 -208zM361 807l14 93h76 l-14 -93h-76zM591 807l14 93h76l-14 -93h-76z" />
<glyph unicode="&#xd7;" horiz-adv-x="582" d="M560 512l-173 -152l130 -152l-53 -46l-130 151l-172 -151l-40 47l172 151l-130 151l53 47l130 -151l173 151z" />
<glyph unicode="&#xd8;" horiz-adv-x="804" d="M202 -50h-77l75 106q-62 46 -88.5 122t-12.5 172q22 157 133.5 256t267.5 99q84 0 145 -30l54 75h77l-76 -106q62 -46 89.5 -122.5t14.5 -171.5q-23 -158 -135 -256.5t-269 -98.5q-82 0 -144 30zM722 350q21 150 -69 228l-354 -493q47 -24 111 -24q120 0 207 80.5 t105 208.5zM180 350q-21 -149 69 -228l353 492q-48 25 -111 25q-119 0 -206.5 -81t-104.5 -208z" />
<glyph unicode="&#xd9;" horiz-adv-x="821" d="M120 644l8 56h230l-8 -56h-74l-48 -339q-15 -109 38 -176.5t152 -67.5q101 0 172.5 67.5t86.5 176.5l48 339h-75l8 56h231l-8 -56h-75l-47 -339q-20 -142 -116 -226t-235 -84q-138 0 -209 83.5t-52 226.5l47 339h-74zM439 903l53 47l126 -146l-36 -32z" />
<glyph unicode="&#xda;" horiz-adv-x="821" d="M120 644l8 56h230l-8 -56h-74l-48 -339q-15 -109 38 -176.5t152 -67.5q101 0 172.5 67.5t86.5 176.5l48 339h-75l8 56h231l-8 -56h-75l-47 -339q-20 -142 -116 -226t-235 -84q-138 0 -209 83.5t-52 226.5l47 339h-74zM593 950l40 -47l-180 -131l-27 32z" />
<glyph unicode="&#xdb;" horiz-adv-x="821" d="M120 644l8 56h230l-8 -56h-74l-48 -339q-15 -109 38 -176.5t152 -67.5q101 0 172.5 67.5t86.5 176.5l48 339h-75l8 56h231l-8 -56h-75l-47 -339q-20 -142 -116 -226t-235 -84q-138 0 -209 83.5t-52 226.5l47 339h-74zM367 837l176 113l144 -113l-45 -39l-109 87l-133 -87 z" />
<glyph unicode="&#xdc;" horiz-adv-x="821" d="M120 644l8 56h230l-8 -56h-74l-48 -339q-15 -109 38 -176.5t152 -67.5q101 0 172.5 67.5t86.5 176.5l48 339h-75l8 56h231l-8 -56h-75l-47 -339q-20 -142 -116 -226t-235 -84q-138 0 -209 83.5t-52 226.5l47 339h-74zM369 807l14 93h76l-14 -93h-76zM599 807l14 93h76 l-14 -93h-76z" />
<glyph unicode="&#xdd;" horiz-adv-x="706" d="M572 644l8 56h233l-8 -56h-77l-299 -382l-29 -206h75l-7 -56h-231l7 56h75l29 206l-192 382h-76l8 56h233l-8 -56h-72l158 -309l244 309h-71zM536 950l40 -47l-180 -131l-27 32z" />
<glyph unicode="&#xde;" horiz-adv-x="617" d="M120 644l8 56h230l-8 -56h-74l-10 -69h165q96 0 148 -59t39 -153q-14 -93 -82 -152t-164 -59h-165l-14 -96h75l-8 -56h-230l7 56h75l82 588h-74zM414 509h-157l-41 -291h157q64 0 109.5 40.5t54.5 104.5q9 65 -25 105.5t-98 40.5z" />
<glyph unicode="&#xdf;" horiz-adv-x="647" d="M92 444l8 56h70l7 57q11 77 68 125t137 48t125 -46.5t34 -115.5q-4 -32 -27 -59t-48 -43t-48 -41t-27 -54t19.5 -50t59.5 -34.5t72 -29.5t58.5 -44.5t16.5 -69.5q-10 -65 -67 -106.5t-131 -41.5q-99 0 -158 73l46 40q42 -52 120 -52q43 0 76 24t37 61q4 28 -20 47.5 t-60 33.5t-71.5 30t-57.5 46t-16 73q5 33 28.5 63t49 48.5t48 42t25.5 45.5q6 44 -19.5 71.5t-70.5 27.5q-47 0 -81 -29.5t-41 -75.5l-78 -564h-146l7 56h70l55 388h-70z" />
<glyph unicode="&#xe0;" horiz-adv-x="575" d="M402 0l15 114q-31 -54 -83 -86t-115 -32q-74 0 -115.5 39.5t-32.5 101.5q11 72 82.5 117t176.5 45q57 0 112 -11l4 30q8 57 -23.5 91.5t-89.5 34.5q-76 0 -132 -22l-9 -60h-65l13 98q82 45 197 45q94 0 145 -51.5t40 -133.5l-7 -54l-30 -210h70l-7 -56h-146zM434 236 q-42 15 -106 15q-73 0 -123 -30t-57 -77q-6 -40 24 -64t82 -24q67 0 118.5 52.5t61.5 127.5zM268 703l53 47l126 -146l-36 -32z" />
<glyph unicode="&#xe1;" horiz-adv-x="575" d="M402 0l15 114q-31 -54 -83 -86t-115 -32q-74 0 -115.5 39.5t-32.5 101.5q11 72 82.5 117t176.5 45q57 0 112 -11l4 30q8 57 -23.5 91.5t-89.5 34.5q-76 0 -132 -22l-9 -60h-65l13 98q82 45 197 45q94 0 145 -51.5t40 -133.5l-7 -54l-30 -210h70l-7 -56h-146zM434 236 q-42 15 -106 15q-73 0 -123 -30t-57 -77q-6 -40 24 -64t82 -24q67 0 118.5 52.5t61.5 127.5zM422 750l40 -47l-180 -131l-27 32z" />
<glyph unicode="&#xe2;" horiz-adv-x="575" d="M402 0l15 114q-31 -54 -83 -86t-115 -32q-74 0 -115.5 39.5t-32.5 101.5q11 72 82.5 117t176.5 45q57 0 112 -11l4 30q8 57 -23.5 91.5t-89.5 34.5q-76 0 -132 -22l-9 -60h-65l13 98q82 45 197 45q94 0 145 -51.5t40 -133.5l-7 -54l-30 -210h70l-7 -56h-146zM434 236 q-42 15 -106 15q-73 0 -123 -30t-57 -77q-6 -40 24 -64t82 -24q67 0 118.5 52.5t61.5 127.5zM196 637l176 113l144 -113l-45 -39l-109 87l-133 -87z" />
<glyph unicode="&#xe3;" horiz-adv-x="575" d="M402 0l15 114q-31 -54 -83 -86t-115 -32q-74 0 -115.5 39.5t-32.5 101.5q11 72 82.5 117t176.5 45q57 0 112 -11l4 30q8 57 -23.5 91.5t-89.5 34.5q-76 0 -132 -22l-9 -60h-65l13 98q82 45 197 45q94 0 145 -51.5t40 -133.5l-7 -54l-30 -210h70l-7 -56h-146zM434 236 q-42 15 -106 15q-73 0 -123 -30t-57 -77q-6 -40 24 -64t82 -24q67 0 118.5 52.5t61.5 127.5zM207 626q-5 5 -14 16t-14 17q62 55 119 55q28 0 74 -18.5t69 -18.5q36 0 74 31q3 -4 13 -15t15 -18q-54 -49 -105 -54q-32 0 -81.5 18.5t-73.5 18.5q-37 0 -76 -32z" />
<glyph unicode="&#xe4;" horiz-adv-x="575" d="M402 0l15 114q-31 -54 -83 -86t-115 -32q-74 0 -115.5 39.5t-32.5 101.5q11 72 82.5 117t176.5 45q57 0 112 -11l4 30q8 57 -23.5 91.5t-89.5 34.5q-76 0 -132 -22l-9 -60h-65l13 98q82 45 197 45q94 0 145 -51.5t40 -133.5l-7 -54l-30 -210h70l-7 -56h-146zM434 236 q-42 15 -106 15q-73 0 -123 -30t-57 -77q-6 -40 24 -64t82 -24q67 0 118.5 52.5t61.5 127.5zM198 607l14 93h76l-14 -93h-76zM428 607l14 93h76l-14 -93h-76z" />
<glyph unicode="&#xe5;" horiz-adv-x="575" d="M402 0l15 114q-31 -54 -83 -86t-115 -32q-74 0 -115.5 39.5t-32.5 101.5q11 72 82.5 117t176.5 45q57 0 112 -11l4 30q8 57 -23.5 91.5t-89.5 34.5q-76 0 -132 -22l-9 -60h-65l13 98q82 45 197 45q94 0 145 -51.5t40 -133.5l-7 -54l-30 -210h70l-7 -56h-146zM434 236 q-42 15 -106 15q-73 0 -123 -30t-57 -77q-6 -40 24 -64t82 -24q67 0 118.5 52.5t61.5 127.5zM283 672q5 36 29.5 58t59.5 22t53.5 -22t13.5 -58q-4 -35 -29 -57t-60 -22q-34 0 -53 22t-14 57zM315 672q-2 -21 8.5 -33.5t31.5 -12.5q20 0 34.5 13t16.5 33q3 21 -7.5 34 t-30.5 13q-21 0 -35.5 -13t-17.5 -34z" />
<glyph unicode="&#xe6;" horiz-adv-x="920" d="M190 362h-66q10 64 14 97q77 46 194 46q63 0 107 -30t60 -81q35 52 89.5 81.5t118.5 29.5q93 0 148 -57t55 -152q0 -22 -3 -46l-3 -21h-397q-1 -6 -1 -19q0 -70 44 -112.5t119 -42.5q92 0 150 55q6 -7 18.5 -21.5t18.5 -21.5q-83 -72 -200 -72q-75 0 -128.5 33.5 t-73.5 92.5q-72 -124 -227 -124q-71 0 -114.5 32.5t-43.5 87.5q0 79 73.5 129.5t184.5 50.5q61 0 111 -11q4 17 4 42q0 54 -31 85t-83 31q-78 0 -129 -22zM515 282h320q1 8 1 23q0 63 -37.5 101t-98.5 38q-66 0 -117 -44.5t-68 -117.5zM431 234q-42 16 -105 16 q-77 0 -128.5 -33.5t-51.5 -84.5q0 -35 29.5 -56t77.5 -21q65 0 115.5 51t62.5 128z" />
<glyph unicode="&#xe7;" horiz-adv-x="540" d="M178 -160l33 29q25 -30 53 -30q21 0 34 10t15 25q2 14 -7.5 24.5t-21.5 17t-20 27.5t-4 55q-95 12 -143.5 80.5t-34.5 171.5q16 113 96.5 184t193.5 71q110 0 174 -48l-14 -100h-66l9 65q-38 22 -107 22q-81 0 -139.5 -54t-70.5 -140t31 -140t124 -54q89 0 147 53l36 -41 q-78 -71 -192 -73q-3 -29 6 -45t21 -21t21 -19.5t5 -39.5q-5 -32 -31.5 -52t-65.5 -20q-50 0 -82 42z" />
<glyph unicode="&#xe8;" horiz-adv-x="568" d="M552 229h-397q-1 -6 -1 -19q0 -70 44 -112.5t119 -42.5q92 0 150 55q6 -7 18.5 -21.5t18.5 -21.5q-81 -72 -200 -72q-103 0 -164 57.5t-61 153.5q0 129 80 214t196 85q93 0 148 -57t55 -152q0 -22 -3 -46zM163 282h320q1 8 1 23q0 63 -37.5 101t-98.5 38 q-66 0 -117 -44.5t-68 -117.5zM284 703l53 47l126 -146l-36 -32z" />
<glyph unicode="&#xe9;" horiz-adv-x="568" d="M552 229h-397q-1 -6 -1 -19q0 -70 44 -112.5t119 -42.5q92 0 150 55q6 -7 18.5 -21.5t18.5 -21.5q-81 -72 -200 -72q-103 0 -164 57.5t-61 153.5q0 129 80 214t196 85q93 0 148 -57t55 -152q0 -22 -3 -46zM163 282h320q1 8 1 23q0 63 -37.5 101t-98.5 38 q-66 0 -117 -44.5t-68 -117.5zM438 750l40 -47l-180 -131l-27 32z" />
<glyph unicode="&#xea;" horiz-adv-x="568" d="M552 229h-397q-1 -6 -1 -19q0 -70 44 -112.5t119 -42.5q92 0 150 55q6 -7 18.5 -21.5t18.5 -21.5q-81 -72 -200 -72q-103 0 -164 57.5t-61 153.5q0 129 80 214t196 85q93 0 148 -57t55 -152q0 -22 -3 -46zM163 282h320q1 8 1 23q0 63 -37.5 101t-98.5 38 q-66 0 -117 -44.5t-68 -117.5zM212 637l176 113l144 -113l-45 -39l-109 87l-133 -87z" />
<glyph unicode="&#xeb;" horiz-adv-x="568" d="M552 229h-397q-1 -6 -1 -19q0 -70 44 -112.5t119 -42.5q92 0 150 55q6 -7 18.5 -21.5t18.5 -21.5q-81 -72 -200 -72q-103 0 -164 57.5t-61 153.5q0 129 80 214t196 85q93 0 148 -57t55 -152q0 -22 -3 -46zM163 282h320q1 8 1 23q0 63 -37.5 101t-98.5 38 q-66 0 -117 -44.5t-68 -117.5zM214 607l14 93h76l-14 -93h-76zM444 607l14 93h76l-14 -93h-76z" />
<glyph unicode="&#xec;" horiz-adv-x="275" d="M91 444q6 40 8 56h146q-21 -149 -63 -445h70q-4 -35 -7 -55h-146q42 296 62 444h-70zM140 703l53 47l126 -146l-36 -32z" />
<glyph unicode="&#xed;" horiz-adv-x="275" d="M91 444q6 40 8 56h146q-21 -149 -63 -445h70q-4 -35 -7 -55h-146q42 296 62 444h-70zM294 750l40 -47l-180 -131l-27 32z" />
<glyph unicode="&#xee;" horiz-adv-x="380" d="M143 444q6 40 8 56h146q-21 -149 -63 -445h70q-4 -35 -7 -55h-146q42 296 62 444h-70zM120 637l176 113l144 -113l-45 -39l-109 87l-133 -87z" />
<glyph unicode="&#xef;" horiz-adv-x="366" d="M114 607q2 14 6.5 45t6.5 48h77q-11 -73 -14 -93h-76zM344 607q2 14 6.5 45t6.5 48h76q-2 -17 -6.5 -48t-6.5 -45h-76zM136 444q1 10 4 28.5t4 27.5h146q-21 -149 -63 -445h70q-3 -19 -7 -55h-146q20 148 62 444h-70z" />
<glyph unicode="&#xf0;" horiz-adv-x="588" d="M406 550h-58l68 77q-39 26 -89 41.5t-81 17.5l-30 3l50 43q12 0 31.5 -1.5t70 -15.5t89.5 -39l44 49h58l-65 -74q122 -99 93 -301l-14 -100q-16 -113 -94 -184t-186 -71q-109 0 -168 71t-43 184t88 183.5t169 70.5q64 0 111.5 -33.5t64.5 -90.5q20 140 -65 220zM497 249 q12 86 -28 140t-114 54q-76 0 -130.5 -54t-66.5 -140t27.5 -139.5t114.5 -53.5q77 1 131 54.5t66 138.5z" />
<glyph unicode="&#xf1;" horiz-adv-x="650" d="M620 0h-146l42 302q9 64 -23.5 103t-93.5 39q-66 0 -118 -51.5t-69 -127.5l-29 -209h70l-7 -56h-216l7 56h70l55 388h-70l8 56h146l-18 -127q35 61 91 96.5t121 35.5q80 0 123 -53t31 -137l-37 -259h70zM263 626q-5 5 -14.5 16t-13.5 17q62 55 119 55q28 0 74 -18.5 t69 -18.5q36 0 74 31q3 -4 13 -15t15 -18q-54 -49 -105 -54q-32 0 -81.5 18.5t-73.5 18.5q-37 0 -76 -32z" />
<glyph unicode="&#xf2;" horiz-adv-x="605" d="M82 250q16 113 97 184t194 71t174 -71t45 -184t-97 -184t-194 -71t-174 71t-45 184zM158 250q-12 -86 30 -140t121 -54q80 0 137.5 54t69.5 140t-30 140t-122 54q-79 0 -136.5 -54t-69.5 -140zM303 703l53 47l126 -146l-36 -32z" />
<glyph unicode="&#xf3;" horiz-adv-x="605" d="M82 250q16 113 97 184t194 71t174 -71t45 -184t-97 -184t-194 -71t-174 71t-45 184zM158 250q-12 -86 30 -140t121 -54q80 0 137.5 54t69.5 140t-30 140t-122 54q-79 0 -136.5 -54t-69.5 -140zM456 750l40 -47l-180 -131l-27 32z" />
<glyph unicode="&#xf4;" horiz-adv-x="605" d="M82 250q16 113 97 184t194 71t174 -71t45 -184t-97 -184t-194 -71t-174 71t-45 184zM158 250q-12 -86 30 -140t121 -54q80 0 137.5 54t69.5 140t-30 140t-122 54q-79 0 -136.5 -54t-69.5 -140zM231 637l176 113l144 -113l-45 -39l-109 87l-133 -87z" />
<glyph unicode="&#xf5;" horiz-adv-x="605" d="M82 250q16 113 97 184t194 71t174 -71t45 -184t-97 -184t-194 -71t-174 71t-45 184zM158 250q-12 -86 30 -140t121 -54q80 0 137.5 54t69.5 140t-30 140t-122 54q-79 0 -136.5 -54t-69.5 -140zM240 626q-4 5 -14 16t-14 17q62 55 119 55q28 0 74 -18.5t69 -18.5 q36 0 74 31q3 -4 13 -15t15 -18q-54 -49 -105 -54q-32 0 -81.5 18.5t-73.5 18.5q-37 0 -76 -32z" />
<glyph unicode="&#xf6;" horiz-adv-x="605" d="M82 250q16 113 97 184t194 71t174 -71t45 -184t-97 -184t-194 -71t-174 71t-45 184zM158 250q-12 -86 30 -140t121 -54q80 0 137.5 54t69.5 140t-30 140t-122 54q-79 0 -136.5 -54t-69.5 -140zM233 607l14 93h76l-14 -93h-76zM463 607l14 93h76l-14 -93h-76z" />
<glyph unicode="&#xf7;" horiz-adv-x="582" d="M547 330h-420l8 60h421zM272 142l14 103h76l-14 -103h-76zM319 475l14 103h76l-14 -103h-76z" />
<glyph unicode="&#xf8;" horiz-adv-x="605" d="M155 -50h-67l65 91q-91 70 -71 209q16 113 97 184t194 71q54 0 100 -19l46 64h67l-66 -91q92 -70 72 -209q-16 -113 -97 -184t-194 -71q-59 0 -100 19zM516 250q14 94 -42 145l-233 -325q27 -14 68 -14q80 0 137.5 54t69.5 140zM158 250q-14 -95 41 -145l233 325 q-30 14 -68 14q-79 0 -136.5 -54t-69.5 -140z" />
<glyph unicode="&#xf9;" horiz-adv-x="645" d="M464 444l8 56h146l-63 -444h70l-7 -56h-146l18 129q-36 -62 -92 -98t-122 -36q-80 0 -122 55.5t-30 144.5l35 249h-70l8 56h146l-41 -295q-10 -67 22.5 -108t92.5 -41q71 0 124.5 57.5t65.5 140.5l27 190h-70zM323 703l53 47l126 -146l-36 -32z" />
<glyph unicode="&#xfa;" horiz-adv-x="645" d="M464 444l8 56h146l-63 -444h70l-7 -56h-146l18 129q-36 -62 -92 -98t-122 -36q-80 0 -122 55.5t-30 144.5l35 249h-70l8 56h146l-41 -295q-10 -67 22.5 -108t92.5 -41q71 0 124.5 57.5t65.5 140.5l27 190h-70zM476 750l40 -47l-180 -131l-27 32z" />
<glyph unicode="&#xfb;" horiz-adv-x="645" d="M464 444l8 56h146l-63 -444h70l-7 -56h-146l18 129q-36 -62 -92 -98t-122 -36q-80 0 -122 55.5t-30 144.5l35 249h-70l8 56h146l-41 -295q-10 -67 22.5 -108t92.5 -41q71 0 124.5 57.5t65.5 140.5l27 190h-70zM251 637l176 113l144 -113l-45 -39l-109 87l-133 -87z" />
<glyph unicode="&#xfc;" horiz-adv-x="645" d="M464 444l8 56h146l-63 -444h70l-7 -56h-146l18 129q-36 -62 -92 -98t-122 -36q-80 0 -122 55.5t-30 144.5l35 249h-70l8 56h146l-41 -295q-10 -67 22.5 -108t92.5 -41q71 0 124.5 57.5t65.5 140.5l27 190h-70zM483 607l14 93h76l-14 -93h-76zM253 607l14 93h76l-14 -93 h-76z" />
<glyph unicode="&#xfd;" horiz-adv-x="600" d="M456 444l8 56h216l-8 -56h-71l-323 -541q-79 -133 -170 -133q-71 0 -107 43l45 40q19 -22 65 -22q30 0 54.5 24.5t53.5 73.5l43 72l-140 443h-70l8 56h121l130 -415l215 359h-70zM454 750l40 -47l-180 -131l-27 32z" />
<glyph unicode="&#xfe;" horiz-adv-x="609" d="M116 669q1 9 3.5 28t3.5 28h146q-9 -60 -25.5 -179.5t-24.5 -179.5q34 63 88.5 100t120.5 37q79 0 126 -55t47 -147q0 -132 -83 -218t-206 -86q-84 0 -140 37q-20 -146 -28 -203h70q-6 -40 -8 -56h-214q1 9 3.5 28t4.5 28h68q78 558 118 838h-70zM203 253q-3 -26 -11 -80 t-11 -81q53 -35 133 -35q88 0 149 66t61 165q0 70 -37 112t-99 42q-69 0 -121.5 -54.5t-63.5 -134.5z" />
<glyph unicode="&#xff;" horiz-adv-x="600" d="M456 444l8 56h216l-8 -56h-71l-323 -541q-79 -133 -170 -133q-71 0 -107 43l45 40q19 -22 65 -22q30 0 54.5 24.5t53.5 73.5l43 72l-140 443h-70l8 56h121l130 -415l215 359h-70zM231 607l14 93h76l-14 -93h-76zM461 607l14 93h76l-14 -93h-76z" />
<glyph unicode="&#x152;" horiz-adv-x="1216" d="M1217 561h-69q2 12 5 36.5t5 36.5h-316q-5 -41 -16 -122.5t-17 -121.5h343l-9 -66h-344q-6 -43 -18 -129.5t-18 -129.5h323q4 21 10 73h69q-8 -54 -19 -138h-470q3 22 9.5 69t9.5 72q-49 -69 -126 -107.5t-169 -38.5q-140 0 -223.5 80.5t-83.5 213.5q0 180 117.5 298 t289.5 118q91 0 157 -39.5t97 -108.5q4 24 10 71.5t10 71.5h462q-3 -23 -9.5 -69.5t-9.5 -69.5zM179 350q-4 -24 -4 -51q0 -108 64 -173.5t170 -65.5q131 0 223.5 97.5t92.5 242.5q0 108 -63 173.5t-171 65.5q-119 0 -206.5 -81t-105.5 -208z" />
<glyph unicode="&#x153;" horiz-adv-x="1002" d="M987 229h-398q-1 -6 -1 -19q0 -70 44 -112.5t119 -42.5q92 0 150 55q6 -7 18.5 -21.5t18.5 -21.5q-81 -72 -199 -72q-76 0 -129 33.5t-74 92.5q-37 -59 -99 -92.5t-137 -33.5q-102 0 -161.5 57t-59.5 153q0 130 84.5 215t208.5 85q73 0 125.5 -33.5t73.5 -91.5 q34 58 91.5 91.5t126.5 33.5q93 0 148.5 -57t55.5 -152q0 -22 -3 -46zM158 250q-3 -19 -3 -37q0 -72 42 -115t112 -43q86 0 147.5 65t61.5 165q0 72 -41.5 115.5t-112.5 43.5q-79 0 -136.5 -54t-69.5 -140zM597 282h321q1 7 1 21q0 63 -38 102t-99 39q-66 0 -117 -44.5 t-68 -117.5z" />
<glyph unicode="&#x178;" horiz-adv-x="706" d="M572 644l8 56h233l-8 -56h-77l-299 -382l-29 -206h75l-7 -56h-231l7 56h75l29 206l-192 382h-76l8 56h233l-8 -56h-72l158 -309l244 309h-71zM312 807l14 93h76l-14 -93h-76zM542 807l14 93h76l-14 -93h-76z" />
<glyph unicode="&#x2c6;" horiz-adv-x="427" d="M147 637l176 113l144 -113l-45 -39l-109 87l-133 -87z" />
<glyph unicode="&#x2dc;" horiz-adv-x="471" d="M176 626q-5 5 -14.5 16t-13.5 17q62 55 119 55q28 0 74 -18.5t69 -18.5q36 0 74 31q3 -4 13 -15t15 -18q-54 -49 -105 -54q-32 0 -81.5 18.5t-73.5 18.5q-37 0 -76 -32z" />
<glyph unicode="&#x2000;" horiz-adv-x="476" />
<glyph unicode="&#x2001;" horiz-adv-x="952" />
<glyph unicode="&#x2002;" horiz-adv-x="476" />
<glyph unicode="&#x2003;" horiz-adv-x="952" />
<glyph unicode="&#x2004;" horiz-adv-x="317" />
<glyph unicode="&#x2005;" />
<glyph unicode="&#x2006;" horiz-adv-x="158" />
<glyph unicode="&#x2007;" horiz-adv-x="158" />
<glyph unicode="&#x2008;" horiz-adv-x="119" />
<glyph unicode="&#x2009;" horiz-adv-x="190" />
<glyph unicode="&#x200a;" horiz-adv-x="52" />
<glyph unicode="&#x2010;" horiz-adv-x="397" d="M352 260h-235l8 60h236z" />
<glyph unicode="&#x2011;" horiz-adv-x="397" d="M352 260h-235l8 60h236z" />
<glyph unicode="&#x2012;" horiz-adv-x="397" d="M352 260h-235l8 60h236z" />
<glyph unicode="&#x2013;" horiz-adv-x="661" d="M617 260h-500l8 60h500z" />
<glyph unicode="&#x2014;" horiz-adv-x="1002" d="M957 260h-840l8 60h841z" />
<glyph unicode="&#x2018;" horiz-adv-x="278" d="M287 715l29 -34q-73 -64 -96 -227h-76q22 155 143 261z" />
<glyph unicode="&#x2019;" horiz-adv-x="278" d="M153 444l-29 34q73 64 96 227h76q-22 -155 -143 -261z" />
<glyph unicode="&#x201a;" d="M29 -150l-29 33q73 65 96 228h76q-22 -155 -143 -261z" />
<glyph unicode="&#x201c;" horiz-adv-x="467" d="M287 715l29 -34q-73 -64 -96 -227h-76q22 155 143 261zM476 715l28 -34q-72 -64 -95 -227h-76q22 155 143 261z" />
<glyph unicode="&#x201d;" horiz-adv-x="467" d="M153 444l-29 34q73 64 96 227h76q-22 -155 -143 -261zM341 444l-29 34q74 64 96 227h76q-11 -80 -50 -147.5t-93 -113.5z" />
<glyph unicode="&#x201e;" horiz-adv-x="426" d="M29 -150l-29 33q73 65 96 228h76q-22 -155 -143 -261zM217 -150l-28 33q71 64 96 228h76q-22 -156 -144 -261z" />
<glyph unicode="&#x2022;" horiz-adv-x="310" d="M98 322q6 44 39.5 73t78.5 29q44 0 66.5 -29t16.5 -73q-6 -43 -37 -71t-75 -28q-45 0 -70 28.5t-19 70.5z" />
<glyph unicode="&#x2026;" horiz-adv-x="659" d="M81 0l15 111h76l-15 -111h-76zM292 0l15 111h76l-15 -111h-76zM502 0l15 111h76l-15 -111h-76z" />
<glyph unicode="&#x202f;" horiz-adv-x="190" />
<glyph unicode="&#x2039;" horiz-adv-x="395" d="M281 72l-175 203l232 203l40 -47l-179 -156l135 -156z" />
<glyph unicode="&#x203a;" horiz-adv-x="395" d="M191 478l174 -203l-231 -203l-40 47l178 156l-134 156z" />
<glyph unicode="&#x205f;" />
<glyph unicode="&#x20ac;" horiz-adv-x="780" d="M58 239q1 12 8 57h87q3 56 15 107h-87q2 17 8 57h99q47 112 147 178.5t226 66.5q158 0 246 -101q-10 -9 -28.5 -24.5t-27.5 -24.5q-63 84 -195 84q-93 0 -167.5 -48.5t-113.5 -130.5h348q-6 -40 -8 -57h-365q-16 -46 -16 -94q0 -3 0.5 -7t0.5 -6h365q-7 -45 -8 -57h-348 q15 -83 76 -131t155 -48q134 0 218 84q7 -8 21.5 -24t21.5 -24q-115 -101 -275 -101q-127 0 -208.5 66t-95.5 178h-99z" />
<glyph unicode="&#x2122;" horiz-adv-x="902" d="M944 390q-1 -7 -2.5 -20t-2.5 -20h-136q4 26 6 40h39q5 37 15.5 111.5t15.5 111.5q-110 -176 -165 -263h-35q-17 47 -48.5 135t-45.5 128q-5 -37 -15 -111.5t-15 -111.5h39q-1 -7 -2.5 -20t-2.5 -20h-136q4 26 6 40h39q7 45 19.5 134.5t18.5 134.5h-40q1 7 3 20.5t3 20.5 h105q66 -180 100 -269q34 52 97.5 149t78.5 120h105q-1 -7 -3 -20.5t-3 -20.5h-40q-15 -102 -37 -269h39zM339 390q-1 -7 -2.5 -20t-2.5 -20h-136q1 7 2.5 20t2.5 20h40q6 44 18.5 132t18.5 132h-90q-2 -8 -4 -23t-3 -22h-43q6 33 13 91h324q-5 -31 -13 -91h-43l6 45h-91 q-6 -44 -18.5 -132t-18.5 -132h40z" />
</font>
</defs>
</svg>
